<?xml version="1.0" standalone="no"?><!DOCTYPE svg PUBLIC "-//W3C//DTD SVG 1.1//EN" "http://www.w3.org/Graphics/SVG/1.1/DTD/svg11.dtd"><svg t="1551798956857" class="icon" style="" viewBox="0 0 1024 1024" version="1.1" xmlns="http://www.w3.org/2000/svg" p-id="2102" xmlns:xlink="http://www.w3.org/1999/xlink" width="200" height="200"><defs><style type="text/css"></style></defs><path d="M896 298.667H768c0-70.4-57.6-128-128-128H128c-70.4 0-128 57.6-128 128v298.667c0 70.4 57.6 128 128 128v128l128-128c0 70.4 57.6 128 128 128h341.333l128 128v-128H896c70.4 0 128-57.6 128-128V426.667c0-70.4-57.6-128-128-128zM128 640c-23.125 0-42.667-19.541-42.667-42.667V298.666c0-23.125 19.541-42.667 42.667-42.667h512c23.125 0 42.667 19.541 42.667 42.667v42.667H405.334c-58.837 0-106.667 47.829-106.667 106.667v192H128z m810.667 85.333C938.667 748.458 919.126 768 896 768H384c-23.125 0-42.667-19.541-42.667-42.667V448c0-35.285 28.715-64 64-64H896c23.125 0 42.667 19.541 42.667 42.667v298.667z" fill="" p-id="2103"></path></svg>